<?xml version="1.0" encoding="utf-8"?>
<svg width="89.41" height="46" viewBox="0 0 89.41 46" fill="none" xmlns="http://www.w3.org/2000/svg">
  <g fill="#FFF7ED" fill-rule="evenodd">
    <path d="M9.89844 0L79.5117 0Q79.7547 0 79.9974 0.0119231Q80.2401 0.0238462 80.4819 0.0476637Q80.7238 0.0714812 80.9641 0.107136Q81.2045 0.14279 81.4428 0.190196Q81.6811 0.237601 81.9168 0.296644Q82.1526 0.355686 82.3851 0.426223Q82.6176 0.49676 82.8464 0.578622Q83.0752 0.660484 83.2997 0.753474Q83.5242 0.846463 83.7438 0.950356Q83.9635 1.05425 84.1778 1.16879Q84.3921 1.28334 84.6005 1.40826Q84.8089 1.53319 85.011 1.66819Q85.213 1.80319 85.4082 1.94794Q85.6034 2.09269 85.7912 2.24684Q85.979 2.40099 86.1591 2.56418Q86.3391 2.72736 86.511 2.89918Q86.6828 3.07101 86.846 3.25105Q87.0092 3.4311 87.1633 3.61893Q87.3175 3.80677 87.4622 4.00194Q87.607 4.19712 87.742 4.39916Q87.877 4.6012 88.0019 4.80962Q88.1268 5.01804 88.2414 5.23235Q88.3559 5.44665 88.4598 5.66631Q88.5637 5.88597 88.6567 6.11047Q88.7497 6.33496 88.8315 6.56375Q88.9134 6.79254 88.9839 7.02507Q89.0545 7.2576 89.1135 7.49331Q89.1725 7.72902 89.22 7.96735Q89.2674 8.20567 89.303 8.44604Q89.3387 8.6864 89.3625 8.92822Q89.3863 9.17004 89.3982 9.41274Q89.4102 9.65545 89.4102 9.89844L89.4102 29.6016Q89.4102 29.8446 89.3982 30.0873Q89.3863 30.33 89.3625 30.5718Q89.3387 30.8136 89.303 31.054Q89.2674 31.2943 89.22 31.5326Q89.1726 31.771 89.1135 32.0067Q89.0545 32.2424 88.9839 32.4749Q88.9134 32.7075 88.8315 32.9362Q88.7497 33.165 88.6567 33.3895Q88.5637 33.614 88.4598 33.8337Q88.3559 34.0534 88.2414 34.2677Q88.1268 34.482 88.0019 34.6904Q87.877 34.8988 87.742 35.1008Q87.607 35.3029 87.4622 35.4981Q87.3175 35.6932 87.1633 35.8811Q87.0092 36.0689 86.846 36.2489Q86.6828 36.429 86.511 36.6008Q86.3391 36.7726 86.1591 36.9358Q85.9791 37.099 85.7912 37.2532Q85.6034 37.4073 85.4082 37.5521Q85.213 37.6968 85.011 37.8318Q84.809 37.9668 84.6005 38.0917Q84.3921 38.2167 84.1778 38.3312Q83.9635 38.4458 83.7438 38.5496Q83.5242 38.6535 83.2997 38.7465Q83.0752 38.8395 82.8464 38.9214Q82.6176 39.0032 82.3851 39.0738Q82.1526 39.1443 81.9168 39.2034Q81.6811 39.2624 81.4428 39.3098Q81.2045 39.3572 80.9641 39.3929Q80.7238 39.4285 80.4819 39.4523Q80.2401 39.4762 79.9974 39.4881Q79.7547 39.5 79.5117 39.5C61.8223 39.5 26.6162 39.5 26.6162 39.5C26.6162 39.5 23.6284 46 22.0923 46C20.5562 46 17.5684 39.5 17.5684 39.5L9.89844 39.5Q9.65545 39.5 9.41274 39.4881Q9.17004 39.4762 8.92822 39.4523Q8.6864 39.4285 8.44603 39.3929Q8.20567 39.3572 7.96735 39.3098Q7.72902 39.2624 7.49331 39.2034Q7.2576 39.1443 7.02507 39.0738Q6.79254 39.0032 6.56375 38.9214Q6.33496 38.8395 6.11047 38.7465Q5.88597 38.6535 5.66631 38.5496Q5.44665 38.4458 5.23235 38.3312Q5.01804 38.2167 4.80962 38.0917Q4.6012 37.9668 4.39916 37.8318Q4.19712 37.6968 4.00194 37.5521Q3.80677 37.4073 3.61893 37.2532Q3.4311 37.099 3.25105 36.9358Q3.07101 36.7726 2.89918 36.6008Q2.72736 36.429 2.56418 36.2489Q2.40099 36.0689 2.24684 35.8811Q2.09269 35.6932 1.94794 35.4981Q1.80319 35.3029 1.66819 35.1008Q1.53319 34.8988 1.40826 34.6904Q1.28334 34.482 1.16879 34.2677Q1.05425 34.0534 0.950356 33.8337Q0.846463 33.614 0.753474 33.3895Q0.660484 33.165 0.578622 32.9362Q0.49676 32.7075 0.426223 32.4749Q0.355686 32.2424 0.296644 32.0067Q0.237601 31.771 0.190196 31.5326Q0.14279 31.2943 0.107136 31.054Q0.0714812 30.8136 0.0476637 30.5718Q0.0238462 30.33 0.0119231 30.0873Q0 29.8446 0 29.6016L0 9.89844Q0 9.65545 0.0119231 9.41274Q0.0238462 9.17004 0.0476637 8.92822Q0.0714812 8.6864 0.107136 8.44603Q0.14279 8.20567 0.190196 7.96735Q0.237601 7.72902 0.296644 7.49331Q0.355686 7.2576 0.426223 7.02507Q0.49676 6.79254 0.578622 6.56375Q0.660484 6.33496 0.753474 6.11047Q0.846463 5.88597 0.950356 5.66631Q1.05425 5.44665 1.16879 5.23235Q1.28334 5.01804 1.40826 4.80962Q1.53319 4.6012 1.66819 4.39916Q1.80319 4.19712 1.94794 4.00194Q2.09269 3.80677 2.24684 3.61893Q2.40099 3.4311 2.56418 3.25105Q2.72736 3.07101 2.89918 2.89918Q3.07101 2.72736 3.25105 2.56418Q3.4311 2.40099 3.61893 2.24684Q3.80677 2.09269 4.00194 1.94794Q4.19712 1.80319 4.39916 1.66819Q4.6012 1.53319 4.80962 1.40826Q5.01804 1.28334 5.23235 1.16879Q5.44665 1.05425 5.66631 0.950356Q5.88597 0.846463 6.11047 0.753474Q6.33496 0.660484 6.56375 0.578622Q6.79254 0.49676 7.02507 0.426223Q7.2576 0.355686 7.49331 0.296644Q7.72902 0.237601 7.96735 0.190196Q8.20567 0.14279 8.44604 0.107136Q8.6864 0.0714812 8.92822 0.0476637Q9.17004 0.0238462 9.41274 0.0119231Q9.65545 0 9.89844 0Z" />
    <path d="M26.6162 39.5L79.5117 39.5Q79.7547 39.5 79.9974 39.4881Q80.2401 39.4762 80.4819 39.4523Q80.7238 39.4285 80.9641 39.3929Q81.2045 39.3572 81.4428 39.3098Q81.6811 39.2624 81.9168 39.2034Q82.1526 39.1443 82.3851 39.0738Q82.6176 39.0032 82.8464 38.9214Q83.0752 38.8395 83.2997 38.7465Q83.5242 38.6535 83.7438 38.5496Q83.9635 38.4458 84.1778 38.3312Q84.3921 38.2167 84.6005 38.0917Q84.8089 37.9668 85.011 37.8318Q85.213 37.6968 85.4082 37.5521Q85.6034 37.4073 85.7912 37.2532Q85.979 37.099 86.1591 36.9358Q86.3391 36.7726 86.511 36.6008Q86.6828 36.429 86.846 36.2489Q87.0092 36.0689 87.1633 35.8811Q87.3175 35.6932 87.4622 35.4981Q87.607 35.3029 87.742 35.1008Q87.877 34.8988 88.0019 34.6904Q88.1268 34.482 88.2414 34.2677Q88.3559 34.0534 88.4598 33.8337Q88.5637 33.614 88.6567 33.3895Q88.7497 33.165 88.8315 32.9362Q88.9134 32.7075 88.9839 32.4749Q89.0545 32.2424 89.1135 32.0067Q89.1725 31.771 89.22 31.5326Q89.2674 31.2943 89.303 31.054Q89.3387 30.8136 89.3625 30.5718Q89.3863 30.33 89.3982 30.0873Q89.4102 29.8446 89.4102 29.6016L89.4102 9.89844Q89.4102 9.65545 89.3982 9.41274Q89.3863 9.17004 89.3625 8.92822Q89.3387 8.6864 89.303 8.44603Q89.2674 8.20567 89.22 7.96735Q89.1726 7.72902 89.1135 7.49331Q89.0545 7.2576 88.9839 7.02507Q88.9134 6.79254 88.8315 6.56375Q88.7497 6.33496 88.6567 6.11047Q88.5637 5.88597 88.4598 5.66631Q88.3559 5.44665 88.2414 5.23235Q88.1268 5.01804 88.0019 4.80962Q87.877 4.6012 87.742 4.39916Q87.607 4.19712 87.4622 4.00194Q87.3175 3.80677 87.1633 3.61893Q87.0092 3.4311 86.846 3.25105Q86.6828 3.07101 86.511 2.89918Q86.3391 2.72736 86.1591 2.56418Q85.9791 2.40099 85.7912 2.24684Q85.6034 2.09269 85.4082 1.94794Q85.213 1.80319 85.011 1.66819Q84.809 1.53319 84.6005 1.40826Q84.3921 1.28334 84.1778 1.16879Q83.9635 1.05425 83.7438 0.950356Q83.5242 0.846463 83.2997 0.753474Q83.0752 0.660484 82.8464 0.578622Q82.6176 0.49676 82.3851 0.426223Q82.1526 0.355686 81.9168 0.296644Q81.6811 0.237601 81.4428 0.190196Q81.2045 0.14279 80.9641 0.107136Q80.7238 0.0714812 80.4819 0.0476637Q80.2401 0.0238462 79.9974 0.0119231Q79.7547 0 79.5117 0L9.89844 0Q9.65545 0 9.41274 0.0119231Q9.17004 0.0238462 8.92822 0.0476637Q8.6864 0.0714812 8.44603 0.107136Q8.20567 0.14279 7.96735 0.190196Q7.72902 0.237601 7.49331 0.296644Q7.2576 0.355686 7.02507 0.426223Q6.79254 0.49676 6.56375 0.578622Q6.33496 0.660484 6.11047 0.753474Q5.88597 0.846463 5.66631 0.950356Q5.44665 1.05425 5.23235 1.16879Q5.01804 1.28334 4.80962 1.40826Q4.6012 1.53319 4.39916 1.66819Q4.19712 1.80319 4.00194 1.94794Q3.80677 2.09269 3.61893 2.24684Q3.4311 2.40099 3.25105 2.56418Q3.07101 2.72736 2.89918 2.89918Q2.72736 3.07101 2.56418 3.25105Q2.40099 3.4311 2.24684 3.61893Q2.09269 3.80677 1.94794 4.00194Q1.80319 4.19712 1.66819 4.39916Q1.53319 4.6012 1.40826 4.80962Q1.28334 5.01804 1.16879 5.23235Q1.05425 5.44665 0.950356 5.66631Q0.846463 5.88597 0.753474 6.11047Q0.660484 6.33496 0.578622 6.56375Q0.49676 6.79254 0.426223 7.02507Q0.355686 7.2576 0.296644 7.49331Q0.237601 7.72902 0.190196 7.96735Q0.14279 8.20567 0.107136 8.44604Q0.0714812 8.6864 0.0476637 8.92822Q0.0238462 9.17004 0.0119231 9.41274Q0 9.65545 0 9.89844L0 29.6016Q0 29.8446 0.0119231 30.0873Q0.0238462 30.33 0.0476637 30.5718Q0.0714812 30.8136 0.107136 31.054Q0.14279 31.2943 0.190196 31.5326Q0.237601 31.771 0.296644 32.0067Q0.355686 32.2424 0.426223 32.4749Q0.49676 32.7075 0.578622 32.9362Q0.660484 33.165 0.753474 33.3895Q0.846463 33.614 0.950356 33.8337Q1.05425 34.0534 1.16879 34.2677Q1.28334 34.482 1.40826 34.6904Q1.53319 34.8988 1.66819 35.1008Q1.80319 35.3029 1.94794 35.4981Q2.09269 35.6932 2.24684 35.8811Q2.40099 36.0689 2.56418 36.2489Q2.72736 36.429 2.89918 36.6008Q3.07101 36.7726 3.25105 36.9358Q3.4311 37.099 3.61893 37.2532Q3.80677 37.4073 4.00194 37.5521Q4.19712 37.6968 4.39916 37.8318Q4.6012 37.9668 4.80962 38.0917Q5.01804 38.2167 5.23235 38.3312Q5.44665 38.4458 5.66631 38.5496Q5.88597 38.6535 6.11047 38.7465Q6.33496 38.8395 6.56375 38.9214Q6.79254 39.0032 7.02507 39.0738Q7.2576 39.1443 7.49331 39.2034Q7.72902 39.2624 7.96735 39.3098Q8.20567 39.3572 8.44604 39.3929Q8.6864 39.4285 8.92822 39.4523Q9.17004 39.4762 9.41274 39.4881Q9.65545 39.5 9.89844 39.5L17.5684 39.5C17.5684 39.5 20.5562 46 22.0923 46C23.6284 46 26.6162 39.5 26.6162 39.5ZM3.60626 3.60626Q6.21252 1 9.89844 1L79.5117 1Q83.1976 1 85.8039 3.60626Q88.4103 6.21252 88.4102 9.89844L88.4102 29.6016Q88.41 33.2875 85.8039 35.8937Q83.1976 38.5 79.5117 38.5L25.9753 38.5L25.7076 39.0823Q22.9873 45 22.0923 45Q21.1971 45 18.477 39.0823L18.2093 38.5L9.89844 38.5Q6.21252 38.5 3.60626 35.8937Q1 33.2875 1 29.6016L1 9.89844Q1 6.21252 3.60626 3.60626Z" fill="#979797" fill-rule="evenodd" fill-opacity="0.247" />
  </g>
</svg>
